<svg xmlns="http://www.w3.org/2000/svg" viewBox="0 0 101.43 26.71"><defs><style>.cls-1{fill:#949591;}</style></defs><title>Asset 1</title><g id="Layer_2" data-name="Layer 2"><g id="Layer_1-2" data-name="Layer 1"><polygon class="cls-1" points="60.88 0 50.72 20.62 40.55 0 36.1 0 49.27 26.71 52.17 26.71 65.34 0 60.88 0"/><polygon class="cls-1" points="4.27 3.99 4.27 11.51 21.73 11.51 21.73 15.46 4.27 15.46 4.27 22.7 22.82 22.7 22.82 26.71 0 26.71 0 0 22.82 0 22.82 3.99 4.27 3.99"/><polygon class="cls-1" points="82.89 3.99 82.89 11.51 100.35 11.51 100.35 15.46 82.89 15.46 82.89 22.7 101.43 22.7 101.43 26.71 78.62 26.71 78.62 0 101.43 0 101.43 3.99 82.89 3.99"/></g></g></svg>